/* XPM */
static char *result[] = {
/* columns rows colors chars-per-pixel */
"50 50 15 1 ",
"  c gray81",
". c #D0D0D0",
"X c gray84",
"o c #DADADA",
"O c gray86",
"+ c #DDDDDD",
"@ c gray88",
"# c #E1E1E1",
"$ c #E7E7E7",
"% c gray93",
"& c gray95",
"* c gray98",
"= c #FEFEFE",
"- c white",
"; c None",
/* pixels */
";;;;;;;;;;;;;;;;;;; O$&*==*&$O ;;;;;;;;;;;;;;;;;;;",
";;;;;;;;;;;;;;;;X%--------------%X;;;;;;;;;;;;;;;;",
";;;;;;;;;;;;;;@--------------------@;;;;;;;;;;;;;;",
";;;;;;;;;;;;+------------------------+;;;;;;;;;;;;",
";;;;;;;;;;.&--------------------------&.;;;;;;;;;;",
";;;;;;;;;o------------------------------o;;;;;;;;;",
";;;;;;;;@--------------------------------@;;;;;;;;",
";;;;;;;#----------------------------------#;;;;;;;",
";;;;;;@------------------------------------@;;;;;;",
";;;;;o--------------------------------------o;;;;;",
";;;;.----------------------------------------.;;;;",
";;;;&----------------------------------------&;;;;",
";;;+------------------------------------------+;;;",
";;;--------------------------------------------;;;",
";;@--------------------------------------------@;;",
";;----------------------------------------------;;",
";X----------------------------------------------X;",
";%----------------------------------------------%;",
";------------------------------------------------;",
" ------------------------------------------------ ",
"O------------------------------------------------O",
"$------------------------------------------------$",
"&------------------------------------------------&",
"*------------------------------------------------*",
"=------------------------------------------------=",
"=------------------------------------------------=",
"*------------------------------------------------*",
"&------------------------------------------------&",
"$------------------------------------------------$",
"O------------------------------------------------O",
" ------------------------------------------------ ",
";------------------------------------------------;",
";%----------------------------------------------%;",
";X----------------------------------------------X;",
";;----------------------------------------------;;",
";;@--------------------------------------------@;;",
";;;--------------------------------------------;;;",
";;;+------------------------------------------+;;;",
";;;;&----------------------------------------&;;;;",
";;;;.----------------------------------------.;;;;",
";;;;;o--------------------------------------o;;;;;",
";;;;;;@------------------------------------@;;;;;;",
";;;;;;;#----------------------------------#;;;;;;;",
";;;;;;;;@--------------------------------@;;;;;;;;",
";;;;;;;;;o------------------------------o;;;;;;;;;",
";;;;;;;;;;.&--------------------------&.;;;;;;;;;;",
";;;;;;;;;;;;+------------------------+;;;;;;;;;;;;",
";;;;;;;;;;;;;;@--------------------@;;;;;;;;;;;;;;",
";;;;;;;;;;;;;;;;X%--------------%X;;;;;;;;;;;;;;;;",
";;;;;;;;;;;;;;;;;;; O$&*==*&$O ;;;;;;;;;;;;;;;;;;;"
};
